<?xml version="1.0" encoding="utf-8"?>
<!-- Generator: Adobe Illustrator 27.5.0, SVG Export Plug-In . SVG Version: 6.00 Build 0)  -->
<svg version="1.1" id="Capa_1" xmlns="http://www.w3.org/2000/svg" xmlns:xlink="http://www.w3.org/1999/xlink" x="0px" y="0px"
	 viewBox="0 0 2122 2122" style="enable-background:new 0 0 2122 2122;" xml:space="preserve">
<path style="fill:#CBD85A;" d="M751.977,1629.336c48.809,46.367,112.859,71.988,176.574,90.527
	c63.828,17.738,130.941,28.453,197.207,20.973c66.941-9.918,132.078-31.91,191.879-63.488
	c28.004-15.871,58.953-31.398,77.035-59.121c13.719-35.148-3.684-73.801-22.68-103.559
	c-52.77-73.691-104.75-147.953-159.559-220.113l0.906-1.754c-30.383-37.695-56.688-78.453-87.582-115.75
	c-2.977-3.57-6.145-7.121-9.52-10.48l-9.117-12.477c-70.512-91.531-106.863-5.5-106.863-5.5
	c-10.941,8.617-18.082,20.855-26.02,32.082c-75.164,109.973-152.086,218.691-227.25,328.602
	c-23.918,33.336-25.164,82.934,0.57,115.695C748.633,1626.051,750.848,1628.262,751.977,1629.336z M1149.938,1422.711
	c6.84-20.949,20.621-13.594,28.176-1.793c1.941,3.016,3.527,6.602,4.77,10.523c4.609,14.539,4.457,33.684-0.559,45.68
	c-17.527,41.867-33.59-20.715-34.047-34.473C1148.059,1435.941,1147.848,1429.082,1149.938,1422.711z M1001.219,1283.902
	c2.043-6.391,4.152-12.922,8.254-18.223c13.48-17.438,23.984-5.887,27.148,7.77c0.809,3.496,1.098,7.406,0.957,11.512
	c-0.539,15.242-7.109,33.223-15.867,42.844C991.152,1361.355,997.035,1297.012,1001.219,1283.902z M905.141,1564.754
	c6.852-20.949,20.621-13.59,28.184-1.793c1.934,3.02,3.527,6.609,4.766,10.527c4.609,14.531,4.465,33.68-0.559,45.672
	c-17.523,41.871-33.586-20.715-34.043-34.469C903.266,1577.988,903.063,1571.125,905.141,1564.754z"/>
<path style="fill:#CBD85A;" d="M1310.84,1405.719c26.074,34.348,50.844,69.777,78.73,102.711
	c27.207,32.023,75.16,45.801,113.367,25.168c97.844-47.219,161.5-144.09,197.719-243.52c0.285-0.734,0.789-2.211,1.078-2.945
	c14.227-46.199,21.031-96.477,9.578-143.98c-16.609-43.367-68.93-54.98-110.254-59.977c-145.34-9.801-290.961-15.469-436.527-21.426
	c-24.371-2.547-55.094,9.414-58.441,36.617c-0.063,22.902,13.492,42.801,25.281,61.504c28.344,41.043,59.121,80.383,86.617,122.047
	l0.898-1.984C1246.84,1323.75,1280.789,1363.367,1310.84,1405.719z M1538.348,1162.281c3.125,1.754,6.215,4.16,9.156,7.039
	c10.91,10.66,19.785,27.625,20.992,40.574c4.23,45.188-39.379-2.484-46.258-14.41c-3.352-5.805-6.754-11.77-7.918-18.371
	C1510.504,1155.41,1526.121,1155.418,1538.348,1162.281z M1458.777,1369.848c3.52,0.699,7.207,2.023,10.898,3.84
	c13.691,6.719,27.418,20.063,32.609,31.984c18.137,41.613-38.188,9.941-48.441,0.762c-4.988-4.477-10.09-9.07-13.258-14.98
	C1430.184,1372.023,1445.023,1367.156,1458.777,1369.848z M1243.395,1162.281c3.121,1.754,6.211,4.16,9.16,7.039
	c10.902,10.66,19.781,27.625,20.988,40.574c4.23,45.188-39.383-2.484-46.254-14.41c-3.359-5.805-6.758-11.77-7.922-18.371
	C1215.551,1155.41,1231.172,1155.418,1243.395,1162.281z"/>
<path style="fill:#FCF8D3;" d="M747.559,1624.973c-25.734-32.762-24.488-82.359-0.57-115.695
	c75.164-109.91,152.086-218.629,227.25-328.602c7.938-11.227,15.078-23.465,26.02-32.082c0,0,36.352-86.031,106.863,5.5
	l9.117,12.477c3.375,3.359,6.543,6.91,9.52,10.48c30.895,37.297,57.199,78.055,87.582,115.75c1.188-2.723,3.453-8.164,4.648-10.883
	c-27.496-41.664-58.273-81.004-86.617-122.047c-11.789-18.703-25.344-38.602-25.281-61.504c3.348-27.203,34.07-39.164,58.441-36.617
	c145.566,5.957,291.188,11.625,436.527,21.426c41.324,4.996,93.645,16.609,110.254,59.977c11.453,47.504,4.648,97.781-9.578,143.98
	c29.363-1.645,60.141-2.785,86.672-17.117c14.34-69.723,30.273-139.73,31.969-211.215c4.199-86.27-16.211-170.902-33.219-254.738
	c-10.996-55.156-28-109.516-57.477-157.754c-43.25-74.934-108.215-135.477-180.711-181.785
	c-79.707-51.527-163.367-97.215-250.543-134.859c-69.672-29.02-142.797-54.242-218.977-56.168
	c-39.113-1.418-78.168,5.836-114.906,18.93c-86.379,30.441-168.41,71.422-250.09,112.41
	c-79.363,40.582-159.394,82.695-226.117,142.672c-51.809,46.992-95,104.754-119.828,170.512
	c-31.457,82.469-52.777,168.859-65.586,256.215c-14.797,100.273,1.016,201.625,18.48,300.543
	c23.637,139.895,115.977,259.781,229.234,341.184c19.047,14.004,39.055,26.754,58.945,39.621c2.328,1.477,7.086,4.422,9.477,5.84
	C661.281,1647.25,705.836,1640.906,747.559,1624.973z M1545.453,575.563c63.262,48.582,108.664,117.227,139.16,190.297
	c24.887,60.367,43.879,124.82,42.914,190.742c0.164,34.918-16.16,72.73-49.145,88.144c-27.215,14.34-58.789,13.324-88.598,12.813
	c-146.711-2.438-293.344-6.348-439.82-13.602c-18.199-2.441-46.254-1.988-50.621-24.945c-0.508-23.012,16.496-41.66,26.98-60.941
	c71.254-108.547,152.199-210.297,229.406-314.598c28.176-35.254,52.602-79.981,99.305-92.738
	C1487.234,540.703,1520.117,556.352,1545.453,575.563z M1060.742,399.84c6.633-16.605,20.52-30.836,38.43-34.746
	c62.695-8.73,126.012,8.789,184.797,29.594c45.91,18.309,93.98,39.902,125.496,79.473c19.555,24.086,11.223,58.27-5.727,81.281
	c-77.203,111.219-158.77,219.203-240.004,327.414c-18.023,22.957-36.902,45.746-59.738,64.109
	c-10.602,8.785-28.859,13.094-38.664,0.852l-15.051-388.75c-0.191-18.59-0.387-37.18-0.59-55.777
	C1050.09,468.715,1046,432.27,1060.742,399.84z M710.598,490.992c68.984-49.824,146.926-89.105,229.801-109.289
	c39.344-8.5,89.676,15.023,92.004,59.238v0.027c5.965,120.875,9.355,242.023,14.004,363.039
	c1.746,79.578,1.52,143.519-3.223,153.941l-0.051,0.113c-17.176,20.813-54.656,24.039-72.856,0.465
	c-84.07-90.066-165.578-182.465-246.699-275.199c-29.078-32.484-62.809-66.492-66.258-112.582
	C652.496,534.469,686.051,511.172,710.598,490.992z M401.16,871.688c19.777-70.457,53.336-137.121,98.23-194.938
	c20.238-24.434,41.66-49.996,70.859-63.887c35.992-12.297,74.879,7.426,98.344,34.75c92.34,100.391,183.543,201.969,274.695,303.488
	c13.324,15.137,27.605,29.816,38.094,47.219c7.879,11.625,7.707,28.91-3.004,38.773c-15.078,14.684-37.809,13.207-57.25,13.832
	c-145.68,0.285-291.418,1.531-437.098-0.566c-34.066-2.383-77.098-12.527-88.602-49.434
	C383.527,958.641,389.82,913.41,401.16,871.688z M556.93,1513.25c-100.336-87.637-166.938-217.789-163.594-352.531
	c1.754-32.363,30.16-55.09,58.211-65.977c39-16.383,81.855-14.566,123.234-15.871c38.832-1.531,77.66-1.867,116.433-4.25
	c85.988-1.93,171.926-5.953,257.91-7.484c19.789-1.25,43.762,5.16,50.848,26.02c8.223,22.219-8.668,41.945-20.348,59.121
	c-83.156,113.031-167.504,225.098-252.699,336.598c-19.391,27.379-44.215,54.414-78.453,61.559
	C613.445,1556.723,582.719,1533.77,556.93,1513.25z"/>
<path style="fill:#DDDD23;" d="M1572.715,423.879c-80.484-53.398-166.254-98.465-254.625-137.293
	c-82.758-34.18-170.391-64.277-261.203-60.598c-62.355,1.645-120.738,26.078-177.824,48.863
	C808.551,304.559,739.738,338.168,672,373.656c-82.82,44.102-166.656,90.016-233.547,157.074
	c-58.043,56.059-102.258,126.238-127.254,203.047c-13.605,38.09-23.641,77.313-33.961,116.426
	c-19.438,80.27-32.305,162.688-28.504,245.559c9.406,89.793,19.27,180.543,46.141,267.102
	c35.824,102.883,105.492,191.082,187.91,261.09c55.434,45.801,116.312,84.797,179.914,118.355
	c-0.394-6.289-1.074-12.754-5.152-17.68c-15.934-23.074-35.945-43.426-47.965-69.047c-19.891-12.867-39.898-25.617-58.945-39.621
	c-113.258-81.402-205.598-201.289-229.234-341.184c-17.465-98.918-33.277-200.27-18.48-300.543
	c12.809-87.355,34.129-173.746,65.586-256.215c24.828-65.758,68.02-123.519,119.828-170.512
	c66.723-59.977,146.754-102.09,226.117-142.672c81.68-40.988,163.711-81.969,250.09-112.41
	c36.738-13.094,75.793-20.348,114.906-18.93c76.18,1.926,149.305,27.148,218.977,56.168
	c87.176,37.645,170.836,83.332,250.543,134.859c72.496,46.309,137.461,106.852,180.711,181.785
	c29.477,48.238,46.48,102.598,57.477,157.754c17.008,83.836,37.418,168.469,33.219,254.738
	c-1.695,71.484-17.629,141.492-31.969,211.215l-1.133,4.813c17.398-5.496,34.629-11.504,51.695-17.961l0.902-4.254
	c20.355-97.387,36.676-197.547,23.297-297.148c-9.57-65.414-22.672-130.262-37.523-194.652l-12.449-44.859
	c-20.563-62.102-53.816-119.82-96.895-169.129C1675.938,497.848,1625.551,458.457,1572.715,423.879z"/>
<path style="fill:#CAD85A;" d="M1049.691,503.289c0.203,18.598,0.398,37.188,0.59,55.777l15.051,388.75
	c9.805,12.242,28.063,7.934,38.664-0.852c22.836-18.363,41.715-41.152,59.738-64.109
	c81.234-108.211,162.801-216.195,240.004-327.414c16.949-23.012,25.281-57.195,5.727-81.281
	c-31.516-39.57-79.586-61.164-125.496-79.473c-58.785-20.805-122.102-38.324-184.797-29.594c-17.91,3.91-31.797,18.141-38.43,34.746
	C1046,432.27,1050.09,468.715,1049.691,503.289z M1184.766,641.738c1.59-15.164,9.391-32.652,18.801-41.637
	c32.813-31.356,22.484,32.426,17.391,45.219c-2.469,6.23-5.035,12.598-9.488,17.605c-14.66,16.461-24.336,4.203-26.543-9.633
	C1184.359,649.754,1184.34,645.832,1184.766,641.738z M1126.637,473.68c0.953-15.223,8.004-33.02,17.012-42.398
	c31.453-32.719,23.844,31.441,19.309,44.438c-2.211,6.328-4.504,12.801-8.742,17.996c-13.938,17.066-24.129,5.234-26.926-8.5
	C1126.57,481.699,1126.387,477.785,1126.637,473.68z"/>
<path style="fill:#CAD85A;" d="M723.578,683.328c81.121,92.734,162.629,185.133,246.699,275.199
	c18.199,23.574,55.68,20.348,72.856-0.465l0.051-0.113c4.742-10.422,4.969-74.363,3.223-153.941
	c-4.648-121.016-8.039-242.164-14.004-363.039v-0.027c-2.328-44.215-52.66-67.738-92.004-59.238
	c-82.875,20.184-160.816,59.465-229.801,109.289c-24.547,20.18-58.102,43.477-53.277,79.754
	C660.769,616.836,694.5,650.844,723.578,683.328z M967.898,800.551c-4.094,21.656-18.703,16.133-27.715,5.395
	c-2.313-2.742-4.344-6.098-6.078-9.824c-6.437-13.824-8.746-32.828-5.309-45.371c12.008-43.769,35.965,16.238,38.184,29.816
	C968.066,787.184,969.144,793.965,967.898,800.551z M813.387,523.191c17.332-27.359,36.695-54.066,62.258-73.957
	c46.176-35.914,128.356-52.23,145.609,22.836c7,30.438-4.195,63.008-23.758,87.359c-19.563,24.344-46.656,41.5-74.563,55.516
	c-22.172,11.133-46.137,20.758-70.922,19.68c-24.785-1.078-50.453-15.414-57.902-39.074
	C786.359,570.934,799.578,544.992,813.387,523.191z M732.125,601.996l4.293-2.156c17.199-6.816,38.824,9.297,37.211,27.727
	c-1.613,18.43-25.715,30.539-41.465,20.836C716.414,638.699,716.387,611.727,732.125,601.996z"/>
<path style="fill:#CAD85A;" d="M1355.73,643.473c-77.207,104.301-158.152,206.051-229.406,314.598
	c-10.484,19.281-27.488,37.93-26.98,60.941c4.367,22.957,32.422,22.504,50.621,24.945c146.477,7.254,293.109,11.164,439.82,13.602
	c29.809,0.512,61.383,1.527,88.598-12.813c32.984-15.414,49.309-53.227,49.145-88.144c0.965-65.922-18.027-130.375-42.914-190.742
	c-30.496-73.07-75.898-141.715-139.16-190.297c-25.336-19.211-58.219-34.859-90.418-24.828
	C1408.332,563.492,1383.906,608.219,1355.73,643.473z M1307.137,972.996c-6.699-0.34-13.555-0.711-19.734-3.324
	c-20.297-8.574-11.809-21.684,0.586-28.227c3.172-1.676,6.875-2.961,10.883-3.867c14.875-3.379,33.934-1.621,45.469,4.391
	C1384.59,962.945,1320.879,973.691,1307.137,972.996z M1446.523,739.137c1.566-3.227,3.781-6.457,6.473-9.57
	c9.973-11.535,26.363-21.43,39.215-23.43c44.848-6.984-0.074,39.457-11.551,47.051c-5.598,3.699-11.34,7.461-17.855,9.023
	C1441.371,767.348,1440.43,751.758,1446.523,739.137z"/>
<path style="fill:#CAD85A;" d="M484.031,1050.359c145.68,2.098,291.418,0.852,437.098,0.566c19.441-0.625,42.172,0.852,57.25-13.832
	c10.711-9.863,10.883-27.148,3.004-38.773c-10.488-17.402-24.769-32.082-38.094-47.219
	c-91.152-101.52-182.355-203.098-274.695-303.488c-23.465-27.324-62.352-47.047-98.344-34.75
	c-29.199,13.891-50.621,39.453-70.859,63.887c-44.895,57.816-78.453,124.481-98.23,194.938
	c-11.34,41.723-17.633,86.953-5.73,129.238C406.934,1037.832,449.965,1047.977,484.031,1050.359z M873.078,966.996
	c5.481,3.859,11.078,7.828,14.91,13.332c12.598,18.082-1.574,24.641-15.547,23.57c-3.574-0.273-7.391-1.164-11.273-2.539
	c-14.379-5.074-29.566-16.73-36.113-27.965C802.191,934.18,861.82,959.07,873.078,966.996z M550.133,751.41
	c12.019-16.824,18.992-32.121,40.672-37.023c24.512-5.551,52.84,8.191,55.68,34.934c1.785,16.836-7.156,32.738-15.785,47.305
	c-24.867,41.969-49.727,83.938-74.59,125.902c-5.203,8.789-11.16,18.203-20.797,21.578c-10.422,3.641-22.414-1.309-29.676-9.625
	c-7.258-8.32-10.57-19.359-12.488-30.231C482.031,841.121,515.996,799.176,550.133,751.41z"/>
<path style="fill:#CAD85A;" d="M648.473,1550.434c34.238-7.145,59.063-34.18,78.453-61.559
	c85.195-111.5,169.543-223.566,252.699-336.598c11.68-17.176,28.57-36.902,20.348-59.121c-7.086-20.859-31.059-27.27-50.848-26.02
	c-85.984,1.531-171.922,5.555-257.91,7.484c-38.773,2.383-77.602,2.719-116.433,4.25c-41.379,1.305-84.234-0.512-123.234,15.871
	c-28.051,10.887-56.457,33.613-58.211,65.977c-3.344,134.742,63.258,264.895,163.594,352.531
	C582.719,1533.77,613.445,1556.723,648.473,1550.434z M873.816,1138.992c6.523-1.559,13.203-3.129,19.863-2.363
	c21.898,2.527,17.434,17.488,7.383,27.258c-2.574,2.496-5.766,4.774-9.359,6.774c-13.324,7.418-32.113,11.094-44.875,8.563
	C802.309,1170.414,860.426,1142.184,873.816,1138.992z M659.598,1343.09c0.598-3.539,1.824-7.262,3.539-11
	c6.348-13.859,19.324-27.945,31.098-33.465c41.105-19.246,10.961,37.902,2.063,48.406c-4.332,5.117-8.797,10.336-14.617,13.656
	C662.539,1371.617,657.277,1356.91,659.598,1343.09z M578.016,1185.684c-2.57,2.496-5.769,4.766-9.363,6.77
	c-13.316,7.418-32.113,11.094-44.867,8.57c-44.527-8.816,13.598-37.039,26.98-40.238c6.523-1.559,13.211-3.129,19.871-2.359
	C592.527,1160.949,588.066,1175.922,578.016,1185.684z"/>
<path style="fill:#579932;" d="M1838.969,1256.867c-9.688,43.133-20.691,86.156-37.242,127.195
	c-36.34,90.184-98.465,168.293-171.98,231.105c-141.375,118.637-315.398,199.078-497.809,227.98
	c-155.258,22.453-311.258-23.18-450.019-90.469c13.488,23.074,35.144,39.461,53.226,58.676
	c40.133,40.699,86.27,74.539,130.262,110.762c89.508,23.98,184.227,24.996,276.508,20.004
	c194.258-17.117,380.188-99.195,530.852-221.805c61.793-50.508,112.742-113.828,150.273-184.109
	c57.363-105.605,87.863-223.906,102.375-342.605c-27.215,21.484-53.793,44.387-85.543,59.012L1838.969,1256.867z"/>
<path style="fill:#D8D30F;" d="M1643.629,1537.848c-57.703,59.75-127.086,106.738-199.242,147.102
	c-102.32,56.395-214.496,96.984-330.871,110.699c-76.809,9.297-154.41-1.074-229.176-18.93
	c-93.813-24.09-183.207-64.109-265.281-115.297c-2.391-1.418-7.148-4.363-9.477-5.84c12.02,25.621,32.031,45.973,47.965,69.047
	c4.078,4.926,4.758,11.391,5.152,17.68c6.293,3.516,12.699,6.977,19.219,10.371c138.762,67.289,294.762,112.922,450.019,90.469
	c182.41-28.902,356.434-109.344,497.809-227.98c73.516-62.813,135.641-140.922,171.98-231.105
	c16.551-41.039,27.555-84.063,37.242-127.195c-17.066,6.457-34.297,12.465-51.695,17.961
	C1764.426,1373.406,1714.656,1465.688,1643.629,1537.848z"/>
<path style="fill:#FEE7A0;" d="M1700.656,1290.078c-36.219,99.43-99.875,196.301-197.719,243.52
	c-38.207,20.633-86.16,6.855-113.367-25.168c-27.887-32.934-52.656-68.363-78.73-102.711c-30.051-42.352-64-81.969-91.953-125.785
	l-0.898,1.984c-1.195,2.719-3.461,8.16-4.648,10.883l-0.906,1.754c54.809,72.16,106.789,146.422,159.559,220.113
	c18.996,29.758,36.398,68.41,22.68,103.559c-18.082,27.723-49.031,43.25-77.035,59.121c-59.801,31.578-124.938,53.57-191.879,63.488
	c-66.266,7.48-133.379-3.234-197.207-20.973c-63.715-18.539-127.766-44.16-176.574-90.527c-1.129-1.074-3.344-3.285-4.418-4.363
	c-41.723,15.934-86.277,22.277-128.5,36.449c82.074,51.188,171.469,91.207,265.281,115.297
	c74.766,17.855,152.367,28.227,229.176,18.93c116.375-13.715,228.551-54.305,330.871-110.699
	c72.156-40.363,141.539-87.352,199.242-147.102c71.027-72.16,120.797-164.441,143.645-263.02l1.133-4.813
	c-26.531,14.332-57.309,15.473-86.672,17.117C1701.445,1287.867,1700.941,1289.344,1700.656,1290.078z"/>
<path style="fill:#6AB02E;" d="M735.144,1811.355c-18.082-19.215-39.738-35.602-53.226-58.676
	c-6.52-3.395-12.926-6.855-19.219-10.371c-63.602-33.559-124.48-72.555-179.914-118.355
	c-82.418-70.008-152.086-158.207-187.91-261.09c-26.871-86.559-36.734-177.309-46.141-267.102
	c-3.801-82.871,9.066-165.289,28.504-245.559c0,0-60.312,188.52-88.988,239.438c-2.605,47.215,3.398,94.777,9.977,141.543
	c10.996,75.793,26.809,152.594,59.629,222.148l-0.965,2.266c31.52,79.133,78.516,151.863,138.086,212.742h1.645
	c25.391,29.418,56.688,53.109,87.129,77.09c113.023,84.117,242.555,150.102,381.656,176.688
	C821.414,1885.895,775.277,1852.055,735.144,1811.355z"/>
<path style="fill:#FFF7B2;" d="M1211.469,662.926c4.453-5.008,7.02-11.375,9.488-17.605c5.094-12.793,15.422-76.574-17.391-45.219
	c-9.41,8.984-17.211,26.473-18.801,41.637c-0.426,4.094-0.406,8.016,0.16,11.555
	C1187.133,667.129,1196.809,679.387,1211.469,662.926z"/>
<path style="fill:#FFF7B2;" d="M1462.805,762.211c6.516-1.563,12.258-5.324,17.855-9.023c11.477-7.594,56.398-54.035,11.551-47.051
	c-12.852,2-29.242,11.894-39.215,23.43c-2.691,3.113-4.906,6.344-6.473,9.57C1440.43,751.758,1441.371,767.348,1462.805,762.211z"/>
<path style="fill:#FFF7B2;" d="M1344.34,941.969c-11.535-6.012-30.594-7.769-45.469-4.391c-4.008,0.906-7.711,2.191-10.883,3.867
	c-12.395,6.543-20.883,19.652-0.586,28.227c6.18,2.613,13.035,2.984,19.734,3.324C1320.879,973.691,1384.59,962.945,1344.34,941.969
	z"/>
<path style="fill:#FFF7B2;" d="M1227.289,1195.484c6.871,11.926,50.484,59.598,46.254,14.41
	c-1.207-12.949-10.086-29.914-20.988-40.574c-2.949-2.879-6.039-5.285-9.16-7.039c-12.223-6.863-27.844-6.871-24.027,14.832
	C1220.531,1183.715,1223.93,1189.68,1227.289,1195.484z"/>
<path style="fill:#FFF7B2;" d="M1522.238,1195.484c6.879,11.926,50.488,59.598,46.258,14.41
	c-1.207-12.949-10.082-29.914-20.992-40.574c-2.941-2.879-6.031-5.285-9.156-7.039c-12.227-6.863-27.844-6.871-24.027,14.832
	C1515.484,1183.715,1518.887,1189.68,1522.238,1195.484z"/>
<path style="fill:#FFF7B2;" d="M1453.844,1406.434c10.254,9.18,66.578,40.852,48.441-0.762
	c-5.191-11.922-18.918-25.266-32.609-31.984c-3.691-1.816-7.379-3.141-10.898-3.84c-13.754-2.692-28.594,2.176-18.191,21.605
	C1443.754,1397.363,1448.855,1401.957,1453.844,1406.434z"/>
<path style="fill:#FFF7B2;" d="M1021.711,1327.805c8.758-9.621,15.328-27.602,15.867-42.844c0.141-4.105-0.148-8.016-0.957-11.512
	c-3.164-13.656-13.668-25.207-27.148-7.77c-4.102,5.301-6.211,11.832-8.254,18.223
	C997.035,1297.012,991.152,1361.355,1021.711,1327.805z"/>
<path style="fill:#FFF7B2;" d="M846.828,1179.223c12.762,2.531,31.551-1.145,44.875-8.563c3.594-2,6.785-4.277,9.359-6.774
	c10.051-9.77,14.516-24.73-7.383-27.258c-6.66-0.766-13.34,0.805-19.863,2.363C860.426,1142.184,802.309,1170.414,846.828,1179.223z
	"/>
<path style="fill:#FFF7B2;" d="M570.637,1158.426c-6.66-0.77-13.348,0.801-19.871,2.359c-13.383,3.199-71.508,31.422-26.98,40.238
	c12.754,2.523,31.551-1.152,44.867-8.57c3.594-2.004,6.793-4.273,9.363-6.77C588.066,1175.922,592.527,1160.949,570.637,1158.426z"
	/>
<path style="fill:#FFF7B2;" d="M861.168,1001.359c3.883,1.375,7.699,2.266,11.273,2.539c13.973,1.07,28.144-5.488,15.547-23.57
	c-3.832-5.504-9.43-9.473-14.91-13.332c-11.258-7.926-70.887-32.816-48.023,6.398C831.602,984.629,846.789,996.285,861.168,1001.359
	z"/>
<path style="fill:#FFF7B2;" d="M681.68,1360.688c5.82-3.32,10.285-8.539,14.617-13.656c8.898-10.504,39.043-67.652-2.063-48.406
	c-11.773,5.52-24.75,19.605-31.098,33.465c-1.715,3.738-2.941,7.461-3.539,11C657.277,1356.91,662.539,1371.617,681.68,1360.688z"/>
<path style="fill:#FFF7B2;" d="M928.797,750.75c-3.438,12.543-1.129,31.547,5.309,45.371c1.734,3.727,3.766,7.082,6.078,9.824
	c9.012,10.738,23.621,16.262,27.715-5.395c1.246-6.586,0.168-13.367-0.918-19.984C964.762,766.988,940.805,706.981,928.797,750.75z"
	/>
<path style="fill:#FFF7B2;" d="M1154.215,493.715c4.238-5.195,6.531-11.668,8.742-17.996c4.535-12.996,12.145-77.156-19.309-44.438
	c-9.008,9.379-16.059,27.176-17.012,42.398c-0.25,4.105-0.066,8.02,0.652,11.535
	C1130.086,498.949,1140.277,510.781,1154.215,493.715z"/>
<path style="fill:#FFF7B2;" d="M1182.324,1477.121c5.016-11.996,5.168-31.141,0.559-45.68c-1.242-3.922-2.828-7.508-4.77-10.523
	c-7.555-11.801-21.336-19.156-28.176,1.793c-2.09,6.371-1.879,13.23-1.66,19.938
	C1148.734,1456.406,1164.797,1518.988,1182.324,1477.121z"/>
<path style="fill:#FFF7B2;" d="M937.531,1619.16c5.023-11.992,5.168-31.141,0.559-45.672c-1.238-3.918-2.832-7.508-4.766-10.527
	c-7.563-11.797-21.332-19.156-28.184,1.793c-2.078,6.371-1.875,13.234-1.652,19.938
	C903.945,1598.445,920.008,1661.031,937.531,1619.16z"/>
<path style="fill:#FCF8D3;" d="M852.012,634.625c24.785,1.078,48.75-8.547,70.922-19.68c27.906-14.016,55-31.172,74.563-55.516
	c19.563-24.352,30.758-56.922,23.758-87.359c-17.254-75.066-99.434-58.75-145.609-22.836
	c-25.563,19.891-44.926,46.598-62.258,73.957c-13.809,21.801-27.027,47.742-19.277,72.359
	C801.559,619.211,827.227,633.547,852.012,634.625z"/>
<path style="fill:#FCF8D3;" d="M732.164,648.402c15.75,9.703,39.852-2.406,41.465-20.836c1.613-18.43-20.012-34.543-37.211-27.727
	l-4.293,2.156C716.387,611.727,716.414,638.699,732.164,648.402z"/>
<path style="fill:#FCF8D3;" d="M493.148,904.25c1.918,10.871,5.23,21.91,12.488,30.231c7.262,8.316,19.254,13.266,29.676,9.625
	c9.637-3.375,15.594-12.789,20.797-21.578c24.863-41.965,49.723-83.934,74.59-125.902c8.629-14.566,17.57-30.469,15.785-47.305
	c-2.84-26.742-31.168-40.484-55.68-34.934c-21.68,4.902-28.652,20.199-40.672,37.023
	C515.996,799.176,482.031,841.121,493.148,904.25z"/>
<path style="fill:#8ABD24;" d="M311.199,733.777c24.996-76.809,69.211-146.988,127.254-203.047
	C505.344,463.672,589.18,417.758,672,373.656c67.738-35.488,136.551-69.098,207.063-98.805
	c57.086-22.785,115.469-47.219,177.824-48.863c90.813-3.68,178.445,26.418,261.203,60.598
	c88.371,38.828,174.141,83.895,254.625,137.293c52.836,34.578,103.223,73.969,143.586,122.945
	c43.078,49.309,76.332,107.027,96.895,169.129l-53.656-193.297c-91.598-107.977-216.484-181.313-341.629-244.344
	c-99.48-48.469-204.688-91.434-316.016-100.449c-92.168-7.539-180.766,25.512-263.926,61.281
	c-86.328,38.375-171.016,80.488-253.492,126.52c-86.273,47.559-167.223,107.129-229.348,184.281
	c-57.313,68.191-88.145,153.102-116.09,236.434c-30.949,97.836-56.516,199.984-50.789,303.262
	c28.676-50.918,88.988-239.438,88.988-239.438C287.559,811.09,297.594,771.867,311.199,733.777z"/>
<path style="fill:#6AB02E;" d="M1927.34,963.688c-9.746-68.894-26.527-136.555-47.289-202.914
	c-14.012-58.063-35.656-107.297-56.766-145.672c-1.379-2.539-2.781-5.055-4.223-7.551c-11.648-20.473-22.953-37.559-32.527-50.902
	c-1.699-2.375-3.344-4.625-4.93-6.754c-13.203-17.773-22.066-27.238-22.066-27.238l53.656,193.297l12.449,44.859
	c14.852,64.391,27.953,129.238,37.523,194.652c13.379,99.602-2.941,199.762-23.297,297.148
	c31.75-14.625,58.328-37.527,85.543-59.012C1933.742,1117.359,1938.449,1039.871,1927.34,963.688z"/>
</svg>
